<?xml version="1.0" encoding="iso-8859-1"?>
<!-- Generator: Adobe Illustrator 16.0.0, SVG Export Plug-In . SVG Version: 6.00 Build 0)  -->
<!DOCTYPE svg PUBLIC "-//W3C//DTD SVG 1.1//EN" "http://www.w3.org/Graphics/SVG/1.1/DTD/svg11.dtd">
<svg fill="#3c6177" version="1.1" id="Capa_1" xmlns="http://www.w3.org/2000/svg" xmlns:xlink="http://www.w3.org/1999/xlink" x="0px" y="0px"
	 width="930px" height="930px" viewBox="0 0 930 930" style="enable-background:new 0 0 930 930;" xml:space="preserve">
<g>
	<circle cx="140.87" cy="364.074" r="59.369"/>
	<path d="M240.227,450.621h-44.466c-6.594,0-12.583,3.844-15.328,9.84l-22.871,49.953l-7.006-14.727l-4.587-9.642l13.014-27.357
		c1.274-2.678,0.234-5.643-1.975-7.119c-0.88-0.589-1.939-0.947-3.12-0.948h-0.001h-26.036h-0.001c-1.181,0-2.24,0.358-3.12,0.948
		c-2.208,1.477-3.249,4.441-1.975,7.119l13.014,27.357l-4.588,9.643l-7.005,14.726l-22.871-49.953
		c-2.745-5.995-8.734-9.84-15.328-9.84H41.513c-25.936,0-42.559,18.037-41.248,48.042L0,623.471
		c0,13.347,12.127,19.906,24.159,19.906c11.851,0,23.608-6.358,23.608-18.857l0.293-93.165l19.23,0.088l0.604,276.054
		c0,19.083,16.152,28.636,32.319,28.636c16.203,0,32.421-9.591,32.421-28.797l-0.004-132.964h16.48l-0.005,132.964
		c0,19.203,16.22,28.797,32.421,28.797c16.169,0,32.32-9.551,32.32-28.636l0.604-276.054l19.231,0.142l0.292,92.937
		c0,12.497,11.759,18.856,23.608,18.856c12.033,0,24.159-6.558,24.159-19.906l-0.266-124.809
		C282.786,468.657,266.162,450.621,240.227,450.621z"/>
	<path d="M467.494,443.672l-99.764,81.191c-5.728,4.661-9.051,11.651-9.051,19.034v273.526c0,13.554,10.987,24.542,24.542,24.542
		h90.474c13.555,0,24.543-10.988,24.543-24.542V458.291C498.236,442.415,479.809,433.652,467.494,443.672z"/>
	<path d="M683.375,267.985l-99.764,81.19c-5.727,4.66-9.051,11.652-9.051,19.035v449.213c0,13.554,10.986,24.542,24.541,24.542
		h90.475c13.555,0,24.543-10.988,24.543-24.542v-534.82C714.119,266.728,695.689,257.964,683.375,267.985z"/>
	<path d="M899.256,92.298l-99.764,81.19c-5.727,4.66-9.051,11.652-9.051,19.035v624.9c0,13.554,10.988,24.542,24.541,24.542h90.475
		c13.555,0,24.543-10.988,24.543-24.542V106.917C930,91.041,911.57,82.277,899.256,92.298z"/>
</g>
<g>
</g>
<g>
</g>
<g>
</g>
<g>
</g>
<g>
</g>
<g>
</g>
<g>
</g>
<g>
</g>
<g>
</g>
<g>
</g>
<g>
</g>
<g>
</g>
<g>
</g>
<g>
</g>
<g>
</g>
</svg>
