<svg fill="#3c6177" height="512pt" viewBox="-42 0 512 512" width="512pt" xmlns="http://www.w3.org/2000/svg"><path d="m399.402344 395.867188h-305.421875c-4.183594 0-7.574219 3.390624-7.574219 7.574218 0 4.179688 3.390625 7.574219 7.574219 7.574219h305.421875c6.960937 0 12.621094 5.660156 12.621094 12.621094v60.59375c0 6.960937-5.664063 12.621093-12.621094 12.621093h-371.632813c-6.960937 0-12.621093-5.664062-12.621093-12.621093v-60.59375c0-6.960938 5.664062-12.621094 12.621093-12.621094h30.832031c4.183594 0 7.574219-3.394531 7.574219-7.574219 0-4.183594-3.390625-7.574218-7.574219-7.574218h-30.832031c-15.3125 0-27.769531 12.457031-27.769531 27.769531v60.59375c0 15.3125 12.457031 27.769531 27.769531 27.769531h371.628907c15.316406 0 27.773437-12.460938 27.773437-27.769531v-60.59375c0-15.3125-12.457031-27.769531-27.769531-27.769531zm0 0"/><path d="m213.585938 377.6875c57.820312 0 106.980468-41.277344 116.890624-98.152344.71875-4.121094-2.039062-8.042968-6.160156-8.761718-4.125-.722657-8.042968 2.042968-8.761718 6.164062-8.644532 49.601562-51.53125 85.601562-101.96875 85.601562-57.074219 0-103.511719-46.433593-103.511719-103.507812 0-57.078125 46.4375-103.511719 103.511719-103.511719 51.652343 0 95.757812 38.539063 102.59375 89.652344.554687 4.144531 4.367187 7.046875 8.507812 6.5 4.148438-.554687 7.058594-4.363281 6.503906-8.511719-2.796875-20.921875-11.042968-40.003906-23.183594-55.898437v-92.839844c0-52.0625-42.355468-94.421875-94.421874-94.421875-20.617188 0-40.210938 6.527344-56.652344 18.875-3.34375 2.511719-4.019532 7.257812-1.507813 10.605469 2.511719 3.34375 7.257813 4.019531 10.605469 1.507812 13.796875-10.363281 30.242188-15.839843 47.554688-15.839843 43.710937 0 79.273437 35.5625 79.273437 79.273437v76.445313c-5.320313-4.777344-11.066406-9.078126-17.167969-12.839844v-63.605469c0-34.246094-27.859375-62.105469-62.105468-62.105469-34.246094 0-62.109376 27.859375-62.109376 62.105469v63.542969c-6.109374 3.769531-11.855468 8.074218-17.167968 12.851562v-76.394531c0-13.886719 3.640625-27.542969 10.527344-39.5 2.085937-3.625.839843-8.257813-2.785157-10.34375-3.625-2.089844-8.253906-.839844-10.34375 2.78125-8.207031 14.253906-12.546875 30.527344-12.546875 47.0625v92.832031c-15.195312 19.945313-24.234375 44.820313-24.234375 71.773438 0 65.433594 53.230469 118.660156 118.660157 118.660156zm-46.957032-283.265625c0-25.894531 21.0625-46.957031 46.957032-46.957031 25.894531 0 46.960937 21.0625 46.960937 46.957031v55.691406c-14.476563-6.273437-30.378906-9.742187-46.960937-9.742187-16.671876 0-32.550782 3.464844-46.957032 9.695312zm0 0"/><path d="m194.398438 323.15625h38.375c4.183593 0 7.574218-3.390625 7.574218-7.574219v-51.21875c8.28125-7.515625 13.128906-18.304687 13.128906-29.570312 0-21.996094-17.894531-39.890625-39.890624-39.890625-21.996094 0-39.890626 17.894531-39.890626 39.890625 0 11.265625 4.847657 22.054687 13.128907 29.570312v51.21875c0 4.183594 3.390625 7.574219 7.574219 7.574219zm19.1875-113.105469c13.644531 0 24.742187 11.097657 24.742187 24.742188 0 7.929687-3.664063 15.183593-10.054687 19.910156-1.933594 1.425781-3.074219 3.6875-3.074219 6.089844v47.214843h-23.226563v-47.214843c0-2.402344-1.140625-4.664063-3.070312-6.089844-6.390625-4.726563-10.058594-11.980469-10.058594-19.910156 0-13.644531 11.097656-24.742188 24.742188-24.742188zm0 0"/><path d="m60.96875 432.726562v8.089844l-7.003906-4.046875c-3.621094-2.089843-8.253906-.847656-10.347656 2.773438-2.089844 3.621093-.851563 8.253906 2.773437 10.347656l7.003906 4.042969-7.003906 4.042968c-3.625 2.09375-4.863281 6.722657-2.773437 10.347657 1.402343 2.429687 3.949218 3.785156 6.566406 3.785156 1.285156 0 2.585937-.324219 3.78125-1.015625l7.003906-4.042969v8.089844c0 4.183594 3.390625 7.574219 7.574219 7.574219 4.183593 0 7.574219-3.390625 7.574219-7.574219v-8.089844l7.003906 4.042969c1.195312.6875 2.496094 1.015625 3.78125 1.015625 2.617187 0 5.164062-1.355469 6.566406-3.785156 2.089844-3.625.851562-8.253907-2.773438-10.347657l-7.003906-4.042968 7.003906-4.042969c3.625-2.09375 4.863282-6.726563 2.773438-10.347656-2.089844-3.621094-6.726562-4.863281-10.347656-2.773438l-7.003906 4.046875v-8.089844c0-4.183593-3.390626-7.574218-7.574219-7.574218-4.183594 0-7.574219 3.390625-7.574219 7.574218zm0 0"/><path d="m116.140625 468.324219c1.402344 2.429687 3.949219 3.785156 6.5625 3.785156 1.285156 0 2.589844-.324219 3.78125-1.015625l7.003906-4.042969v8.089844c0 4.183594 3.394531 7.574219 7.574219 7.574219 4.183594 0 7.574219-3.390625 7.574219-7.574219v-8.089844l7.007812 4.042969c1.191407.6875 2.492188 1.015625 3.777344 1.015625 2.617187 0 5.164063-1.355469 6.566406-3.785156 2.09375-3.625.851563-8.253907-2.769531-10.347657l-7.007812-4.042968 7.007812-4.042969c3.621094-2.09375 4.863281-6.726563 2.769531-10.347656-2.089843-3.621094-6.722656-4.863281-10.34375-2.773438l-7.007812 4.046875v-8.089844c0-4.183593-3.390625-7.574218-7.574219-7.574218-4.179688 0-7.574219 3.390625-7.574219 7.574218v8.089844l-7.003906-4.046875c-3.621094-2.089843-8.253906-.847656-10.34375 2.773438-2.09375 3.621093-.851563 8.253906 2.769531 10.347656l7.003906 4.042969-7.003906 4.042968c-3.621094 2.09375-4.863281 6.722657-2.769531 10.347657zm0 0"/><path d="m188.660156 468.324219c1.402344 2.429687 3.949219 3.785156 6.566406 3.785156 1.285157 0 2.585938-.324219 3.78125-1.015625l7.003907-4.042969v8.089844c0 4.183594 3.390625 7.574219 7.574219 7.574219 4.183593 0 7.574218-3.390625 7.574218-7.574219v-8.089844l7.003906 4.042969c1.195313.6875 2.496094 1.015625 3.78125 1.015625 2.617188 0 5.164063-1.355469 6.566407-3.785156 2.089843-3.625.851562-8.253907-2.773438-10.347657l-7.003906-4.042968 7.003906-4.042969c3.625-2.09375 4.863281-6.726563 2.773438-10.347656-2.089844-3.621094-6.726563-4.863281-10.347657-2.773438l-7.003906 4.046875v-8.089844c0-4.183593-3.390625-7.574218-7.574218-7.574218-4.183594 0-7.574219 3.390625-7.574219 7.574218v8.089844l-7.003907-4.046875c-3.621093-2.089843-8.253906-.847656-10.347656 2.773438-2.089844 3.621093-.851562 8.253906 2.773438 10.347656l7.003906 4.042969-7.003906 4.042968c-3.625 2.09375-4.863282 6.722657-2.773438 10.347657zm0 0"/><path d="m261.183594 468.324219c1.402344 2.429687 3.949218 3.785156 6.566406 3.785156 1.285156 0 2.585938-.324219 3.777344-1.015625l7.007812-4.042969v8.089844c0 4.183594 3.390625 7.574219 7.574219 7.574219 4.179687 0 7.574219-3.390625 7.574219-7.574219v-8.089844l7.003906 4.042969c1.191406.6875 2.496094 1.015625 3.78125 1.015625 2.617188 0 5.160156-1.355469 6.5625-3.785156 2.09375-3.625.851562-8.253907-2.769531-10.347657l-7.003907-4.042968 7.003907-4.042969c3.621093-2.09375 4.863281-6.726563 2.769531-10.347656-2.089844-3.621094-6.722656-4.863281-10.34375-2.773438l-7.003906 4.046875v-8.089844c0-4.183593-3.394532-7.574218-7.574219-7.574218-4.183594 0-7.574219 3.390625-7.574219 7.574218v8.089844l-7.007812-4.046875c-3.621094-2.089843-8.253906-.847656-10.34375 2.773438-2.09375 3.621093-.851563 8.253906 2.769531 10.347656l7.007813 4.042969-7.007813 4.042968c-3.621094 2.09375-4.863281 6.722657-2.769531 10.347657zm0 0"/><path d="m333.703125 468.324219c1.402344 2.429687 3.949219 3.785156 6.566406 3.785156 1.285157 0 2.585938-.324219 3.78125-1.015625l7.003907-4.042969v8.089844c0 4.183594 3.390624 7.574219 7.574218 7.574219s7.574219-3.390625 7.574219-7.574219v-8.089844l7.003906 4.042969c1.195313.6875 2.496094 1.015625 3.78125 1.015625 2.617188 0 5.164063-1.355469 6.566407-3.785156 2.089843-3.625.851562-8.253907-2.773438-10.347657l-7.003906-4.042968 7.003906-4.042969c3.625-2.09375 4.863281-6.726563 2.773438-10.347656-2.089844-3.621094-6.726563-4.863281-10.347657-2.773438l-7.003906 4.046875v-8.089844c0-4.183593-3.390625-7.574218-7.574219-7.574218s-7.574218 3.390625-7.574218 7.574218v8.089844l-7.003907-4.046875c-3.625-2.089843-8.253906-.847656-10.347656 2.773438-2.089844 3.621093-.851563 8.253906 2.773437 10.347656l7.003907 4.042969-7.003907 4.042968c-3.621093 2.09375-4.863281 6.722657-2.773437 10.347657zm0 0"/></svg>